<svg id="multfunc" xmlns="http://www.w3.org/2000/svg" xmlns:xlink="http://www.w3.org/1999/xlink" viewBox="0 0 479.07 110.36"><defs><style>.cls-1{fill:none;}.cls-2{fill:#007fca;}.cls-3{fill:#ed7000;}.cls-4{fill:#b667a6;}.cls-5{clip-path:url(#clip-path);}</style><clipPath id="clip-path" transform="translate(-199.38 -197.12)"><rect class="cls-1" x="190.18" y="187.92" width="128.75" height="128.75"/></clipPath></defs><title>multfunc</title><path class="cls-2" d="M370.08,240.82c-6.29,12.32-19.59,17.17-35.24,19.07a4.18,4.18,0,0,1-4.37-2.54c-.12-.28-.24-.57-.37-.84a1.2,1.2,0,0,1,1-1.69,76.71,76.71,0,0,0,16.38-2.89,1.15,1.15,0,0,0,.4-2l-1.06-.85a1.14,1.14,0,0,1,.13-1.89l1.06-.62,3.62-.21a8.07,8.07,0,0,0,8.79-1.64,21.25,21.25,0,0,0,1.79-2h-9a4.75,4.75,0,0,0-2.63.82,54.62,54.62,0,0,1-8.93,4.78,4.22,4.22,0,0,1-4.9-1.25l-.42-.5a1.11,1.11,0,0,1,.47-1.78c7.41-2.54,12.76-6.06,16.19-9.69a4.06,4.06,0,0,1,3.85-1.11l2.07.48a.9.9,0,0,1,.47,1.47l0,0a1.15,1.15,0,0,0,.86,1.91h5.59l1-.27,2.77,1.58A1.23,1.23,0,0,1,370.08,240.82Zm-6.14-17c-5.64,9.07-16.66,14.38-28.29,17.07a4.22,4.22,0,0,1-4.67-2.16c-.09-.16-.18-.32-.26-.48a1.19,1.19,0,0,1,.83-1.77,63.73,63.73,0,0,0,9.94-2.52,1.15,1.15,0,0,0,.37-2l-.93-.74a1.15,1.15,0,0,1,.09-1.89l.35-.22,4.37-.3a8.12,8.12,0,0,0,7.9-1.17l0,0a1.07,1.07,0,0,0-.68-1.91h-7.17a4.71,4.71,0,0,0-2.62.81,55.55,55.55,0,0,1-5.56,3.22,4.18,4.18,0,0,1-4.9-.86l-.37-.37a1.2,1.2,0,0,1,.37-2,40.77,40.77,0,0,0,12.64-8,4.18,4.18,0,0,1,3.84-1l1.44.34a1.21,1.21,0,0,1,.58,2l-1,.94H360l1-.23,2.61,1.57A1.15,1.15,0,0,1,363.94,223.84Z" transform="translate(-199.38 -197.12)"/><path class="cls-2" d="M410.11,254.27c1.31,0,1.69-.89,1.92-5.42a1.44,1.44,0,0,1,2.05-1.24c.15.07.3.15.46.21a4.06,4.06,0,0,1,2.34,4.24c-.73,5.59-2.32,7.32-6.31,7.32h-5.52c-5.2,0-6.54-1.75-6.54-7.13V238.17h-2.82a4.59,4.59,0,0,0-4.53,3.94c-1,6.71-3.28,12.35-10,16.23a4.11,4.11,0,0,1-5.3-1l-.25-.3a1.46,1.46,0,0,1,.52-2.25c7.34-3.44,8.81-8.8,9.39-15.3a1.23,1.23,0,0,0-1.21-1.33h-9.08v-5.34h41v5.34H404.17v14.08c0,1.74.28,2,1.8,2Zm2-28.57H379.42v-5.29h32.66Z" transform="translate(-199.38 -197.12)"/><path class="cls-3" d="M443.76,232.68l6.47,3.74L447,242l-6.47-3.74-3.35,5.81a1.67,1.67,0,0,0,1.31,2.5l2.18.18a1.59,1.59,0,0,1,1.36,2.16l-.09.22a5.61,5.61,0,0,1-5.47,3.57c-5.49-.23-8.27-.29-9.92-.2a1.56,1.56,0,0,1-1.64-1.73c0-.33.07-.68.09-1a5.67,5.67,0,0,1,3-4.52A5.76,5.76,0,0,0,430.2,243l4.65-8.05-6.42-3.71,3.22-5.58,6.42,3.71,3-5.16-3.79-2.19,2.46-4.26-.37.13a1.49,1.49,0,0,1-2-1.61c.06-.45.11-.92.16-1.4a5.94,5.94,0,0,1,3.81-4.94,36.7,36.7,0,0,0,6.77-3.46,5.87,5.87,0,0,1,7.52.86h0a1,1,0,0,1-.1,1.54l-1.22,1a1.49,1.49,0,0,0,.15,2.49l6.92,4-3.4,5.9-9.5-5.49a5.78,5.78,0,0,0-5.26-.27c-.52.23-1.05.45-1.6.66l13.79,8-3.22,5.58-5.47-3.16Zm40.89,11.47-3.26,5.63L452.5,233.1l3.25-5.63,5.84,3.37,2.89-5-4.74-2.74,3.13-5.42,4.74,2.74,3.52-6.11,5.58,3.22-3.52,6.11,5.21,3,3.52-6.11,5.69,3.28-3.53,6.11,5.27,3-3.13,5.42-5.27-3-2.88,5Zm-25.37-3.21,12.14,7a6.08,6.08,0,0,1,2.23,8.31L466,269.6a5.94,5.94,0,0,1-8.1,2.17l-.76-.44h0a1.88,1.88,0,0,0-.69-2.58l-7.89-4.55a1.87,1.87,0,0,0-2.57.69l-.15.26-.5-.29a5.92,5.92,0,0,1-2.17-8.1L451,243.17A6.08,6.08,0,0,1,459.28,240.94ZM455.69,248h0a2,2,0,0,0,.74,2.74l7.68,4.44a2,2,0,0,0,2.74-.74h0a2,2,0,0,0-.74-2.74l-7.68-4.43A2,2,0,0,0,455.69,248ZM462,262.91h0a2.07,2.07,0,0,0-.76-2.83l-7.58-4.37a2.07,2.07,0,0,0-2.82.75h0a2.07,2.07,0,0,0,.76,2.83l7.57,4.37A2.08,2.08,0,0,0,462,262.91Zm5.21-28.85,5.21,3,2.89-5-5.21-3Z" transform="translate(-199.38 -197.12)"/><path class="cls-2" d="M500,242.41c-1.08-.71-2.25-1.44-3.36-2.11a1.39,1.39,0,0,1-.34-2.11l0,0a4,4,0,0,1,5-.85c1.31.73,2.64,1.52,3.73,2.23a1.39,1.39,0,0,1,.31,2h0A4,4,0,0,1,500,242.41Zm-1.34,10.76c1.79-1.92,3.78-4.21,5.64-6.48a1.25,1.25,0,0,1,1.95,0l.15.19a4.21,4.21,0,0,1,.08,5.22c-1.77,2.29-3.66,4.61-5.51,6.8a1.43,1.43,0,0,1-2.13,0l-.18-.2A4.1,4.1,0,0,1,498.69,253.17Zm7.3-28.62h-9.62v-4.78H506v-2.53h5.33v2.53H521.9v-2.53h5.34v2.53h9.89v4.78h-9.89v3H521.9v-3H511.32v3H506Zm-1.72,3.8c1.3.71,2.62,1.45,3.69,2.11a1.25,1.25,0,0,1,.32,1.86l0,0a4.16,4.16,0,0,1-5.45.94c-1.11-.69-2.3-1.42-3.39-2a1.26,1.26,0,0,1-.33-1.91h0A4.16,4.16,0,0,1,504.27,228.35Zm30.62,4.2a29.7,29.7,0,0,1-5.15,5.32,1.1,1.1,0,0,0,.34,1.9c2.24.77,4.56,1.45,6.85,2a1.24,1.24,0,0,1,.68,2c-.51.64-1,1.33-1.41,2a1.48,1.48,0,0,1-1.62.63l-.9-.25V255a5.14,5.14,0,0,1-5.15,5.15h-.23a1.84,1.84,0,0,0-1.84-1.84H517.9a1.85,1.85,0,0,0-1.84,1.84h0a5.15,5.15,0,0,1-5.15-5.15v-8.1l-.78.2a1.3,1.3,0,0,1-1.49-.67,19.46,19.46,0,0,0-1.19-2,1.13,1.13,0,0,1,.67-1.73,59.19,59.19,0,0,0,8.16-2.51,1.12,1.12,0,0,0,.25-2c-.35-.25-.7-.5-1-.76a1.75,1.75,0,0,0-2.22.12l-.14.13a4.1,4.1,0,0,1-5.33.17l0,0a1.23,1.23,0,0,1,0-1.94,36.8,36.8,0,0,0,7.32-7.27A4.12,4.12,0,0,1,519.2,227l2.61.53v0a1.18,1.18,0,0,0,.8,2h8.62l.88-.23,2.4,1.46A1.19,1.19,0,0,1,534.89,232.55Zm-8.27,11.06c-.87-.36-1.73-.74-2.57-1.15a1.72,1.72,0,0,0-1.53,0c-.81.41-1.63.79-2.46,1.16a1.11,1.11,0,0,0,.46,2.13h5.69A1.11,1.11,0,0,0,526.62,243.61ZM528.3,252h0a2.1,2.1,0,0,0-2.09-2.09h-8.05a2.1,2.1,0,0,0-2.1,2.09h0a2.1,2.1,0,0,0,2.1,2.1h8.05A2.1,2.1,0,0,0,528.3,252ZM521,235.64l1.27.72a1.62,1.62,0,0,0,1.62-.07c.35-.22.7-.45,1-.68a1.11,1.11,0,0,0-.62-2h-2.72A1.12,1.12,0,0,0,521,235.64Z" transform="translate(-199.38 -197.12)"/><path class="cls-2" d="M583.79,224.27a1.29,1.29,0,0,1,1.29,1.31c0,.45,0,.92,0,1.18-.6,20.56-1.1,27.88-3,30.32a6.15,6.15,0,0,1-4.42,2.53,51.84,51.84,0,0,1-7.22.09,13,13,0,0,0-1.79-5.34c2.94.28,5.66.28,6.85.28a2.49,2.49,0,0,0,2-.78c1.28-1.42,1.88-7.88,2.38-22.86a1.7,1.7,0,0,0-1.69-1.76h-5.54a4.06,4.06,0,0,0-3.62,2.27,40.38,40.38,0,0,1-2,3.61,1.53,1.53,0,0,1-2.19.4l-.5-.36a1.14,1.14,0,0,0-1.8.93v19.33h-8.93a3.36,3.36,0,0,0-3.36,3.36h0a5,5,0,0,1-5-5V224.6h1.45a4.65,4.65,0,0,0,4.58-3.82c.12-.65.22-1.29.3-1.9a1.72,1.72,0,0,1,1.94-1.45l2.14.3a1.74,1.74,0,0,1,1.4,2.3c-.26.76-.53,1.5-.8,2.22a1.74,1.74,0,0,0,1.63,2.35h4.61v3.26a1.14,1.14,0,0,0,2.16.52,51.54,51.54,0,0,0,3.07-7.67,4,4,0,0,1,4.65-2.64h0a1.55,1.55,0,0,1,1.15,1.92c-.21.74-.43,1.46-.66,2.19a1.61,1.61,0,0,0,1.55,2.09Zm-29.92,5.11h0a3.66,3.66,0,0,0-3.66,3.66v.14a3.65,3.65,0,0,0,3.66,3.65h0a3.65,3.65,0,0,0,3.66-3.65V233A3.66,3.66,0,0,0,553.87,229.38Zm3.66,17.55v-1.7a3.66,3.66,0,0,0-3.66-3.66h0a3.66,3.66,0,0,0-3.66,3.66v1.7a3.66,3.66,0,0,0,3.66,3.66h0A3.66,3.66,0,0,0,557.53,246.93Zm14.45-.45c-1.2-2.23-3-5-4.56-7.47a1.73,1.73,0,0,1,.6-2.45l1.31-.75a1.74,1.74,0,0,1,2.27.49c1.72,2.42,3.66,5.24,5,7.47a1.72,1.72,0,0,1-.58,2.36l-1.62,1A1.72,1.72,0,0,1,572,246.48Z" transform="translate(-199.38 -197.12)"/><path class="cls-2" d="M629.71,253.9c0,3-.6,4.47-2.53,5.34a14.32,14.32,0,0,1-5.22.91,4.56,4.56,0,0,1-4.49-3c0-.09-.07-.18-.1-.26a1.48,1.48,0,0,1,1.41-2c2,0,3.72,0,4.35,0,.87-.05,1.15-.28,1.15-1.11v-6.9l-1,.77a4.57,4.57,0,0,1-6.23-.59c-1.31-1.5-2.83-3.13-4.39-4.73a1.61,1.61,0,0,0-2.55.34,23.2,23.2,0,0,1-5.25,6.14,4.59,4.59,0,0,1-6.13-.34,14.87,14.87,0,0,0-1.33-1.17v13h-5.47V230.31a5.48,5.48,0,0,1,5.48-5.48H608v-7.64h5.65v7.64h10.62a5.48,5.48,0,0,1,5.49,5.48Zm-29.79-8.25c5.77-3.94,7.42-9.1,7.87-13.76a1.61,1.61,0,0,0-1.6-1.73h-7a1.81,1.81,0,0,0-1.8,1.8v12.36A1.61,1.61,0,0,0,599.92,245.65Zm13.55-14.15c-.05.51-.1,1-.17,1.53a4.61,4.61,0,0,0,1.42,4c2.36,2.18,4.88,4.6,6.93,6.78a1.53,1.53,0,0,0,2.63-1.05V232a1.81,1.81,0,0,0-1.8-1.8h-7.54A1.47,1.47,0,0,0,613.47,231.5Z" transform="translate(-199.38 -197.12)"/><path class="cls-2" d="M648.78,244.12h0a1.11,1.11,0,0,0-2.15.38v15.61h-5.24V248.94a1.11,1.11,0,0,0-2.12-.46c-.2.42-.4.83-.6,1.22a1.22,1.22,0,0,1-2.18-.06c-.16-.34-.32-.68-.49-1a4.64,4.64,0,0,1,.21-4.41,50.39,50.39,0,0,0,4.72-11.82,1.24,1.24,0,0,0-1.2-1.58h-3.91v-5.06h5.57v-8.56h5.24v8.56h4.6v5.06h-4.6a4.6,4.6,0,0,0,.8,2.59c.81,1.19,1.87,2.82,2.78,4.25a4.48,4.48,0,0,1-.39,5.31l-1,1.17S648.79,244.14,648.78,244.12Zm28.27-1.72a40.81,40.81,0,0,1-5.16,6.28,1.07,1.07,0,0,0,.08,1.61c2,1.61,4.07,3.4,5.61,4.89a1.31,1.31,0,0,1-.05,1.94L675.35,259a1.24,1.24,0,0,1-1.72-.12c-1.11-1.19-2.59-2.6-4.15-4a4,4,0,0,0-4.85-.36,48.85,48.85,0,0,1-8.74,4.47,4.6,4.6,0,0,1-5.44-1.62,2,2,0,0,0-.17-.23A1.37,1.37,0,0,1,651,255c8.47-2.68,15.43-7.49,19.49-13.11a4.59,4.59,0,0,1,5.26-1.67l.71.26A1.27,1.27,0,0,1,677.05,242.4Zm-3.35-8.75a45.48,45.48,0,0,1-15.48,14.43,4.57,4.57,0,0,1-5.85-1.15c-.34-.43-.66-.82-1-1.12A38.85,38.85,0,0,0,660,241a1.09,1.09,0,0,0-.74-2c-2.26.2-3.6.36-4.48.53a1.47,1.47,0,0,1-1.7-1.12c-.19-.77-.42-1.62-.65-2.34a1.09,1.09,0,0,1,.77-1.38,5.41,5.41,0,0,0,2.48-1.25,47.18,47.18,0,0,0,2.87-4.24,1.07,1.07,0,0,0-.91-1.65h-5.69v-5h9.31a1.08,1.08,0,0,0,1-1.42c-.2-.61-.44-1.23-.69-1.82a1.06,1.06,0,0,1,.67-1.44l.69-.21a4,4,0,0,1,4.85,2.33l0,.06a4,4,0,0,0,3.69,2.5H678v5H667.5a4,4,0,0,0-3.39,1.9c-.57.93-1.16,1.88-1.75,2.8a1.29,1.29,0,0,0,1.14,2l1.37-.06a4.07,4.07,0,0,0,3.39-1.82c.23-.36.44-.71.65-1.06a1.59,1.59,0,0,1,1.9-.7l2.08.7A1.55,1.55,0,0,1,673.7,233.65Z" transform="translate(-199.38 -197.12)"/><path class="cls-4" d="M329.55,280.42c0-5.76,3.79-9.06,8-9.06a6.1,6.1,0,0,1,4.5,1.82l-2.16,2.89a2.66,2.66,0,0,0-2.06-1.08c-2.22,0-3.67,2.16-3.67,5.43s1.54,5.38,3.54,5.38a4,4,0,0,0,2.84-1.29l1.78,3a7.14,7.14,0,0,1-5.11,2C332.94,289.5,329.55,286.14,329.55,280.42Z" transform="translate(-199.38 -197.12)"/><path class="cls-4" d="M342.64,280.42c0-6.07,3.14-9,6.74-9s6.75,3,6.75,9-3.14,9-6.75,9S342.64,286.48,342.64,280.42Zm8.87,0c0-3.58-.8-5.39-2.13-5.39s-2.12,1.81-2.12,5.39.77,5.35,2.12,5.35S351.51,284,351.51,280.42Z" transform="translate(-199.38 -197.12)"/><path class="cls-4" d="M357.45,291.87a4.11,4.11,0,0,1,2.07-3.57v-.12a3.34,3.34,0,0,1-1.45-2.93,4.07,4.07,0,0,1,1.78-3.23v-.13a5.3,5.3,0,0,1-2-4.43c0-4.25,2.93-6.07,5.85-6.07a5.07,5.07,0,0,1,1.94.37h5.55v3.36h-2.65a4.76,4.76,0,0,1,.68,2.55c0,3.82-2.53,5.67-5.24,5.67a4.71,4.71,0,0,1-1.85-.34,2.27,2.27,0,0,0-.46,1.42c0,.95.49,1.45,2.22,1.45H366c3.45,0,5.3,1.29,5.3,4.34,0,3.32-3,5.88-7.73,5.88C360.28,296.09,357.45,294.77,357.45,291.87Zm9.49-.89c0-1.26-.83-1.6-2.37-1.6H364a5.94,5.94,0,0,1-2-.22,3,3,0,0,0-.77,2c0,1.27,1.05,2,2.77,2S366.94,292.15,366.94,291Zm-1.67-13.52c0-2.22-.64-3.08-1.57-3.08s-1.6.83-1.6,3.08.68,3.14,1.6,3.14S365.27,279.74,365.27,277.46Z" transform="translate(-199.38 -197.12)"/><path class="cls-4" d="M372.7,271.76h3.66l.31,2.1h.12a5.63,5.63,0,0,1,4.5-2.47c2.89,0,4.12,2.16,4.12,6v11.7h-4.58v-11.3c0-1.85-.37-2.56-1.48-2.56-.8,0-1.48.65-2.1,1.82v12H372.7Z" transform="translate(-199.38 -197.12)"/><path class="cls-4" d="M387.32,266.46a2.72,2.72,0,0,1,5.42,0,2.72,2.72,0,0,1-5.42,0Zm.43,5.3h4.56v17.31h-4.56Z" transform="translate(-199.38 -197.12)"/><path class="cls-4" d="M398.1,282.82v-7.49H395V272l3.36-.19.55-4.68h3.76v4.68h5v3.57h-5v7.49c0,2.12.86,3.11,2.52,3.11a5.55,5.55,0,0,0,2.19-.49l.77,3.23a12.53,12.53,0,0,1-4.19.77C399.73,289.44,398.1,286.82,398.1,282.82Z" transform="translate(-199.38 -197.12)"/><path class="cls-4" d="M411.34,266.46a2.72,2.72,0,0,1,5.42,0,2.72,2.72,0,0,1-5.42,0Zm.43,5.3h4.56v17.31h-4.56Z" transform="translate(-199.38 -197.12)"/><path class="cls-4" d="M419,280.42c0-6.07,3.14-9,6.75-9s6.74,3,6.74,9-3.14,9-6.74,9S419,286.48,419,280.42Zm8.87,0c0-3.58-.8-5.39-2.12-5.39s-2.13,1.81-2.13,5.39.77,5.35,2.13,5.35S427.88,284,427.88,280.42Z" transform="translate(-199.38 -197.12)"/><path class="cls-4" d="M434.9,271.76h3.67l.3,2.1H439a5.6,5.6,0,0,1,4.49-2.47c2.9,0,4.13,2.16,4.13,6v11.7H443v-11.3c0-1.85-.37-2.56-1.48-2.56-.8,0-1.47.65-2.09,1.82v12H434.9Z" transform="translate(-199.38 -197.12)"/><path class="cls-4" d="M496.74,272.24h2.89l.32,2.08h.12c.45-1.43,1.28-2.44,2.89-2.44,1.22,0,2.05,1,2.26,2.68a2.93,2.93,0,0,1,2.71-2.68c1.79,0,2.83,1.64,2.83,4.49V289h-3.63V277.15c0-1.1-.3-1.58-.87-1.58s-.89.57-1.07,1.61V289h-2.92V277.15c0-1.07-.23-1.58-.8-1.58s-.92.57-1.1,1.61V289h-3.63Z" transform="translate(-199.38 -197.12)"/><path class="cls-4" d="M512,280.6c0-5.86,3-8.72,6.52-8.72s6.51,2.86,6.51,8.72-3,8.72-6.51,8.72S512,286.46,512,280.6Zm8.57,0c0-3.45-.77-5.21-2.05-5.21s-2.06,1.76-2.06,5.21.75,5.18,2.06,5.18S520.61,284.08,520.61,280.6Z" transform="translate(-199.38 -197.12)"/><path class="cls-4" d="M526.77,272.24h3.54l.3,3.12h.15c1.31-2.2,3-3.48,5-3.48a6.06,6.06,0,0,1,2.59.5l-.86,3.73a5.68,5.68,0,0,0-2.12-.42c-1.6,0-3.21.95-4.16,3.48V289h-4.41Z" transform="translate(-199.38 -197.12)"/><path class="cls-4" d="M539,280.6c0-5.42,3.25-8.72,6.73-8.72,3.9,0,5.89,3.3,5.89,7.95a18.24,18.24,0,0,1-.14,2.05h-8.19c.27,2.71,1.61,4.11,3.54,4.11a5,5,0,0,0,2.71-.84L551,287.8a8.06,8.06,0,0,1-4.76,1.52C542.22,289.32,539,286.14,539,280.6Zm8.93-1.73c0-2.26-.68-3.66-2.11-3.66s-2.41,1.25-2.62,3.66Z" transform="translate(-199.38 -197.12)"/><path class="cls-4" d="M573.23,280.21c0-5.57,3.66-8.75,7.77-8.75a5.92,5.92,0,0,1,4.35,1.75l-2.09,2.8a2.57,2.57,0,0,0-2-1c-2.15,0-3.54,2.08-3.54,5.24s1.48,5.21,3.42,5.21a3.84,3.84,0,0,0,2.74-1.25l1.72,2.86a7,7,0,0,1-4.94,2C576.51,289,573.23,285.74,573.23,280.21Z" transform="translate(-199.38 -197.12)"/><path class="cls-4" d="M585.88,280.21c0-5.87,3-8.72,6.52-8.72s6.52,2.85,6.52,8.72-3,8.72-6.52,8.72S585.88,286.07,585.88,280.21Zm8.57,0c0-3.45-.77-5.21-2.05-5.21s-2,1.76-2,5.21.74,5.18,2,5.18S594.45,283.69,594.45,280.21Z" transform="translate(-199.38 -197.12)"/><path class="cls-4" d="M600.35,271.84h2.88l.33,2.09h.12c.45-1.43,1.28-2.44,2.89-2.44,1.22,0,2,1,2.26,2.68a2.93,2.93,0,0,1,2.71-2.68c1.78,0,2.83,1.63,2.83,4.49v12.59h-3.64V276.76c0-1.11-.29-1.58-.86-1.58s-.89.56-1.07,1.61v11.78h-2.92V276.76c0-1.08-.24-1.58-.8-1.58s-.92.56-1.1,1.61v11.78h-3.63Z" transform="translate(-199.38 -197.12)"/><path class="cls-4" d="M616.24,271.84h3.51l.39,1.76h.09c.95-1.25,2-2.11,3.39-2.11,3.13,0,5,2.88,5,8.45,0,6.22-2.53,9.05-5.35,9.05a3.63,3.63,0,0,1-2.83-1.55l.12,2.68v4.32h-4.35Zm7.89,8.19c0-3.42-.66-5-1.79-5-.62,0-1.16.56-1.75,1.73v7.62a1.73,1.73,0,0,0,1.51,1C623.15,285.39,624.13,283.9,624.13,280Z" transform="translate(-199.38 -197.12)"/><path class="cls-4" d="M630.62,282.83V265.59H635V283c0,1.72.84,2.35,2,2.35a3.09,3.09,0,0,0,1.6-.51l1,3.28a9.66,9.66,0,0,1-4,.77C632.37,288.93,630.62,286.64,630.62,282.83Z" transform="translate(-199.38 -197.12)"/><path class="cls-4" d="M639.64,280.21c0-5.42,3.24-8.72,6.72-8.72,3.9,0,5.9,3.3,5.9,7.94a15.83,15.83,0,0,1-.15,2.06h-8.19c.27,2.71,1.61,4.11,3.54,4.11a4.94,4.94,0,0,0,2.71-.84l1.49,2.65a8.13,8.13,0,0,1-4.76,1.52C642.85,288.93,639.64,285.74,639.64,280.21Zm8.92-1.73c0-2.26-.68-3.66-2.11-3.66s-2.41,1.25-2.62,3.66Z" transform="translate(-199.38 -197.12)"/><path class="cls-4" d="M655.56,282.53V275.3h-3V272l3.25-.18.53-4.52H660v4.52h4.89v3.46H660v7.23c0,2.05.84,3,2.45,3a5.2,5.2,0,0,0,2.11-.48l.74,3.13a12.31,12.31,0,0,1-4,.74C657.14,288.93,655.56,286.4,655.56,282.53Z" transform="translate(-199.38 -197.12)"/><path class="cls-4" d="M665.83,280.21c0-5.42,3.24-8.72,6.72-8.72,3.9,0,5.9,3.3,5.9,7.94a15.83,15.83,0,0,1-.15,2.06h-8.19c.27,2.71,1.61,4.11,3.55,4.11a4.94,4.94,0,0,0,2.7-.84l1.49,2.65a8.11,8.11,0,0,1-4.76,1.52C669,288.93,665.83,285.74,665.83,280.21Zm8.93-1.73c0-2.26-.69-3.66-2.12-3.66-1.28,0-2.41,1.25-2.62,3.66Z" transform="translate(-199.38 -197.12)"/><g class="cls-5"><g class="cls-5"><path class="cls-2" d="M236.16,298.28a9.2,9.2,0,1,1-9.19-9.19,9.19,9.19,0,0,1,9.19,9.19" transform="translate(-199.38 -197.12)"/><path class="cls-3" d="M309.74,252.3a18.4,18.4,0,1,1-18.4-18.39,18.39,18.39,0,0,1,18.4,18.39" transform="translate(-199.38 -197.12)"/><path class="cls-4" d="M254.56,224.71A27.59,27.59,0,1,1,227,197.12a27.59,27.59,0,0,1,27.59,27.59" transform="translate(-199.38 -197.12)"/></g></g></svg>